<svg version="1.1" id="Layer_1" xmlns="http://www.w3.org/2000/svg" xmlns:xlink="http://www.w3.org/1999/xlink" x="0px" y="0px"
	 width="100%" viewBox="0 0 2556 2556" enable-background="new 0 0 2556 2556" xml:space="preserve">
<path fill="#FFFEFE" opacity="1.000000" stroke="none" 
	d="
M1740.000000,2558.000000 
	C1160.000000,2558.000000 581.000000,2558.000000 2.000000,2558.000000 
	C2.000000,1706.000000 2.000000,854.000000 2.000000,2.000000 
	C854.000000,2.000000 1706.000000,2.000000 2558.000000,2.000000 
	C2558.000000,854.000000 2558.000000,1706.000000 2558.000000,2558.000000 
	C2285.666748,2558.000000 2013.333374,2558.000000 1740.000000,2558.000000 
M845.000122,1976.156982 
	C827.701721,1975.505127 810.318848,1975.706177 793.124268,1974.004883 
	C766.259827,1971.346802 743.689514,1958.952026 724.421387,1940.310059 
	C722.088257,1938.052856 719.806641,1935.742432 717.626282,1933.580811 
	C715.959412,1934.501831 714.971924,1934.843140 714.242615,1935.479980 
	C692.265137,1954.670166 666.255920,1965.146729 637.999207,1970.702637 
	C606.351624,1976.925171 574.400879,1977.113159 542.377319,1975.094482 
	C519.356140,1973.643433 496.640472,1970.234985 474.601410,1963.171753 
	C451.058624,1955.626465 429.776794,1944.350952 413.190369,1925.442749 
	C412.458923,1924.608887 411.396088,1924.065674 409.179047,1922.409668 
	C409.179047,1926.003906 409.021271,1927.891357 409.202911,1929.745483 
	C411.592346,1954.137085 417.647552,1977.624878 426.982239,2000.253662 
	C470.252441,2105.147949 571.656799,2160.107910 662.898010,2159.853027 
	C890.888611,2159.216064 1118.882202,2159.642334 1346.874634,2159.642822 
	C1400.539551,2159.642822 1454.204346,2159.653076 1507.869263,2159.624023 
	C1510.990479,2159.622559 1514.111450,2159.308350 1518.295776,2159.082031 
	C1516.645874,2157.234619 1516.150391,2156.320801 1515.382935,2155.872559 
	C1487.367798,2139.504639 1469.452515,2114.701904 1457.375488,2085.365479 
	C1445.561768,2056.668945 1441.420288,2026.296021 1439.504150,1995.559570 
	C1439.407593,1994.010742 1440.087036,1992.413574 1440.673706,1989.510254 
	C1444.516602,1990.546753 1447.892578,1991.346924 1451.200439,1992.367798 
	C1468.701416,1997.769409 1485.979004,2004.057495 1503.724854,2008.464844 
	C1528.870117,2014.709839 1554.436890,2016.215942 1579.992920,2010.191406 
	C1597.406006,2006.086548 1612.141846,1997.504395 1623.430908,1983.443848 
	C1624.750732,1981.800049 1625.513672,1979.708984 1627.247559,1976.510376 
	C1616.680542,1976.306396 1607.473511,1976.290527 1598.280396,1975.925293 
	C1528.788574,1973.164307 1479.954834,1939.927490 1451.852783,1876.331543 
	C1441.243408,1852.322144 1435.376343,1827.065308 1433.122192,1800.983521 
	C1427.802979,1739.438843 1437.869507,1680.718628 1466.242554,1625.555176 
	C1479.214844,1600.334229 1496.287842,1578.295166 1519.458862,1561.544678 
	C1548.139282,1540.811768 1579.737671,1536.003540 1613.505859,1545.832886 
	C1634.905640,1552.062012 1650.589722,1566.333618 1663.793213,1583.630493 
	C1678.163696,1602.456299 1686.956909,1624.012207 1693.965088,1646.387085 
	C1708.116577,1691.569214 1713.490845,1738.192871 1716.598755,1785.180664 
	C1717.101929,1792.786377 1717.556641,1800.395142 1718.016235,1807.724243 
	C1731.218750,1811.874634 1765.882324,1810.004272 1776.697754,1804.831909 
	C1783.326904,1801.661499 1787.967896,1796.568726 1790.655029,1789.820190 
	C1792.127075,1786.122681 1793.102173,1782.221436 1794.209961,1778.385620 
	C1799.313110,1760.714233 1805.310913,1743.546021 1816.499390,1728.488770 
	C1838.535034,1698.833618 1868.381592,1679.002441 1899.869995,1661.167725 
	C1901.810425,1660.068726 1904.534302,1660.352661 1908.933594,1659.682251 
	C1907.026489,1665.279663 1906.073242,1669.016479 1904.520264,1672.484619 
	C1893.737427,1696.566895 1883.785522,1720.994019 1879.285767,1747.104614 
	C1877.553833,1757.154663 1877.206787,1767.737915 1878.168701,1777.894531 
	C1879.979614,1797.012573 1889.991455,1807.474365 1908.836548,1810.895142 
	C1925.480347,1813.916382 1942.089478,1812.885132 1958.151367,1807.214600 
	C1976.334961,1800.795410 1985.597290,1785.816650 1983.125000,1766.626221 
	C1982.191406,1759.379761 1980.408203,1752.229004 1978.772827,1745.089478 
	C1975.054443,1728.856323 1970.628906,1712.763794 1967.510498,1696.419556 
	C1962.671143,1671.054321 1971.187866,1650.517334 1991.936646,1635.128784 
	C1995.679932,1632.352661 1999.363770,1629.347534 2003.485107,1627.256836 
	C2017.734131,1620.028809 2032.054688,1612.919434 2046.571533,1606.251343 
	C2053.849121,1602.908691 2057.001221,1605.078247 2057.614746,1613.244385 
	C2058.012695,1618.542114 2057.709717,1623.904053 2057.536377,1629.231201 
	C2056.222900,1669.539551 2054.608887,1709.840698 2053.696289,1750.157715 
	C2053.465088,1760.375977 2054.321045,1770.901489 2056.639648,1780.827515 
	C2059.978027,1795.118164 2069.731934,1804.710571 2083.885254,1808.871582 
	C2095.475586,1812.278931 2107.482422,1813.285767 2119.540039,1811.761108 
	C2140.477783,1809.113403 2153.644043,1796.590820 2156.068604,1775.551147 
	C2157.081543,1766.762085 2156.290283,1757.570679 2155.018799,1748.749756 
	C2151.405762,1723.687622 2146.694824,1698.781616 2143.206055,1673.704102 
	C2138.224365,1637.898438 2150.876953,1608.710938 2179.131348,1586.749512 
	C2186.123535,1581.314697 2188.119873,1575.932007 2188.114502,1567.635376 
	C2187.934570,1286.644897 2187.965088,1005.654236 2187.960449,724.663574 
	C2187.960205,719.663940 2188.010254,714.660706 2187.847656,709.665283 
	C2185.399902,634.414062 2156.468506,571.175720 2100.146240,521.313232 
	C2051.821045,478.530487 1994.835083,457.274109 1930.037720,457.280945 
	C1508.718384,457.325287 1087.399048,457.294373 666.079773,457.345947 
	C656.423340,457.347137 646.673218,457.292389 637.125305,458.508148 
	C555.897461,468.851471 492.445282,508.171875 447.834869,576.843445 
	C419.641479,620.243225 407.677856,668.352539 407.717163,720.103699 
	C407.974274,1058.425537 407.848511,1396.747803 407.847931,1735.069824 
	C407.847931,1738.386108 407.847931,1741.702271 407.847931,1745.018555 
	C412.178467,1748.660156 416.058350,1752.541504 417.729279,1757.212891 
	C424.758545,1776.865112 438.006073,1790.199463 457.744812,1796.075928 
	C472.044495,1800.333374 486.814789,1804.683716 501.560394,1805.455444 
	C545.799377,1807.771362 590.124634,1808.577881 634.426453,1809.462769 
	C646.464111,1809.703125 658.292786,1807.044678 669.262512,1801.605103 
	C700.734558,1785.999268 707.185181,1750.411865 683.084656,1724.951172 
	C672.541626,1713.813110 659.778137,1706.199829 645.039429,1701.935181 
	C625.920654,1696.402954 606.319580,1694.463745 586.643433,1696.523438 
	C576.541565,1697.580811 566.221741,1700.222168 556.912170,1704.253174 
	C545.281494,1709.289307 542.522522,1717.803345 546.036560,1729.763062 
	C546.505432,1731.359009 547.258362,1732.888672 547.576111,1734.508545 
	C548.955750,1741.543213 546.387817,1744.915649 539.401855,1744.464111 
	C522.341492,1743.361206 505.502716,1740.678833 490.018890,1733.075195 
	C465.187714,1720.881348 452.520874,1700.869141 453.352112,1672.923584 
	C453.900543,1654.486572 459.448914,1637.312012 469.261139,1621.944092 
	C503.864410,1567.748535 552.535645,1538.891235 617.937622,1541.396973 
	C646.130920,1542.477173 670.178101,1553.194946 690.406677,1573.000244 
	C709.948364,1592.132935 722.198364,1615.577148 731.820740,1640.670410 
	C744.679749,1674.203857 751.401550,1709.140625 755.508606,1744.691528 
	C756.384216,1752.270874 757.648926,1759.920410 759.820435,1767.214233 
	C767.648438,1793.507568 788.136841,1808.416382 814.633667,1809.211304 
	C852.257324,1810.340088 889.944763,1809.369141 927.604553,1809.207886 
	C929.964172,1809.197876 932.320435,1808.429199 935.857910,1807.805542 
	C928.088562,1798.952148 921.141052,1791.397217 914.593872,1783.509766 
	C890.966125,1755.046021 879.280273,1723.088135 883.853088,1685.433960 
	C891.811890,1619.897705 925.186523,1573.212280 986.906311,1549.886353 
	C1032.312500,1532.726074 1077.523926,1537.100830 1116.792480,1567.409180 
	C1158.518921,1599.614380 1172.221924,1644.877319 1169.743652,1695.985107 
	C1169.351685,1704.068359 1165.738037,1705.970581 1158.451416,1702.285156 
	C1138.349121,1692.118286 1116.773926,1686.345459 1095.128174,1680.886597 
	C1064.020508,1673.041626 1032.547852,1667.457520 1000.278442,1668.228760 
	C986.859375,1668.549316 973.734802,1670.688599 961.305542,1676.046509 
	C949.074890,1681.318848 942.313354,1690.817871 942.072571,1703.966187 
	C941.947510,1710.794922 942.746765,1718.263672 945.496277,1724.378662 
	C949.821106,1733.997192 954.987549,1743.726318 961.862244,1751.607910 
	C976.511108,1768.403076 992.507690,1784.020996 1007.901367,1800.169556 
	C1011.632202,1804.083374 1015.763977,1805.232300 1021.325378,1804.737671 
	C1077.079590,1799.778809 1131.328003,1788.162109 1183.862061,1768.756714 
	C1196.052490,1764.253662 1208.121094,1759.419800 1220.318604,1754.936279 
	C1227.653442,1752.240234 1230.282959,1754.035889 1230.725342,1761.650879 
	C1230.860352,1763.972412 1230.663940,1766.314697 1230.586914,1768.646484 
	C1229.475220,1802.292847 1228.371094,1835.939453 1227.234863,1869.584961 
	C1226.796021,1882.576416 1226.145142,1895.562378 1225.872559,1908.556641 
	C1225.775635,1913.170166 1224.245117,1915.823364 1219.653564,1917.395996 
	C1212.414429,1919.875244 1205.403564,1923.033691 1198.335449,1925.998779 
	C1128.785034,1955.176392 1056.570190,1972.506348 980.968811,1974.206421 
	C936.320557,1975.210449 891.656799,1975.527466 845.000122,1976.156982 
M1644.180420,2151.291992 
	C1641.877197,2153.735107 1637.976440,2154.804443 1636.703369,2159.661377 
	C1640.516479,2159.661377 1643.442505,2159.661621 1646.368652,2159.661377 
	C1744.665039,2159.658936 1842.961426,2159.661133 1941.257812,2159.636963 
	C1945.252319,2159.635986 1949.264648,2159.584229 1953.238647,2159.223145 
	C2061.282227,2149.413330 2152.078369,2072.525635 2179.536865,1967.607178 
	C2180.438965,1964.160156 2181.049805,1960.636963 2182.218750,1955.176025 
	C2177.732422,1958.089478 2174.985352,1959.828857 2172.283203,1961.635742 
	C2154.166748,1973.751343 2134.326172,1980.686279 2112.506348,1982.148438 
	C2079.983887,1984.327759 2051.634277,1973.472290 2025.625488,1954.975220 
	C2022.460083,1952.723877 2019.258057,1950.523682 2016.072266,1948.299316 
	C1989.067139,1973.882202 1956.827148,1982.628174 1921.763916,1982.167114 
	C1886.568359,1981.704468 1854.958374,1971.347656 1830.676270,1943.955200 
	C1828.351440,1945.639771 1826.698730,1946.717896 1825.178101,1947.958130 
	C1809.875610,1960.437622 1792.436890,1968.813599 1773.100586,1971.984131 
	C1757.729370,1974.504761 1742.008301,1974.916992 1726.434082,1976.158569 
	C1721.915161,1976.518799 1717.366943,1976.513062 1712.787598,1976.676636 
	C1712.240723,1980.153687 1711.826904,1982.425415 1711.532349,1984.712646 
	C1707.907227,2012.858032 1702.336548,2040.590698 1693.749390,2067.665771 
	C1683.848389,2098.883789 1669.673828,2127.622314 1644.180420,2151.291992 
M1490.579224,1730.040283 
	C1489.177612,1738.276245 1491.186401,1745.885010 1494.783936,1753.222412 
	C1499.718384,1763.287109 1506.735718,1771.588257 1515.730103,1778.255371 
	C1528.994751,1788.088135 1543.759399,1794.946411 1559.463501,1799.704590 
	C1585.531006,1807.602783 1612.397705,1809.567139 1639.461914,1809.657715 
	C1640.608398,1809.661621 1641.757935,1808.834595 1643.438477,1808.190552 
	C1637.289429,1775.768677 1625.425049,1746.755371 1602.390503,1722.874756 
	C1583.038208,1702.811768 1559.382080,1694.649414 1531.992065,1695.985474 
	C1509.335571,1697.090454 1497.261719,1706.645996 1490.579224,1730.040283 
z"/>
<path fill="#950C0C" opacity="1.000000" stroke="none" 
	d="
M846.000122,1976.155273 
	C891.656799,1975.527466 936.320557,1975.210449 980.968811,1974.206421 
	C1056.570190,1972.506348 1128.785034,1955.176392 1198.335449,1925.998779 
	C1205.403564,1923.033691 1212.414429,1919.875244 1219.653564,1917.395996 
	C1224.245117,1915.823364 1225.775635,1913.170166 1225.872559,1908.556641 
	C1226.145142,1895.562378 1226.796021,1882.576416 1227.234863,1869.584961 
	C1228.371094,1835.939453 1229.475220,1802.292847 1230.586914,1768.646484 
	C1230.663940,1766.314697 1230.860352,1763.972412 1230.725342,1761.650879 
	C1230.282959,1754.035889 1227.653442,1752.240234 1220.318604,1754.936279 
	C1208.121094,1759.419800 1196.052490,1764.253662 1183.862061,1768.756714 
	C1131.328003,1788.162109 1077.079590,1799.778809 1021.325378,1804.737671 
	C1015.763977,1805.232300 1011.632202,1804.083374 1007.901367,1800.169556 
	C992.507690,1784.020996 976.511108,1768.403076 961.862244,1751.607910 
	C954.987549,1743.726318 949.821106,1733.997192 945.496277,1724.378662 
	C942.746765,1718.263672 941.947510,1710.794922 942.072571,1703.966187 
	C942.313354,1690.817871 949.074890,1681.318848 961.305542,1676.046509 
	C973.734802,1670.688599 986.859375,1668.549316 1000.278442,1668.228760 
	C1032.547852,1667.457520 1064.020508,1673.041626 1095.128174,1680.886597 
	C1116.773926,1686.345459 1138.349121,1692.118286 1158.451416,1702.285156 
	C1165.738037,1705.970581 1169.351685,1704.068359 1169.743652,1695.985107 
	C1172.221924,1644.877319 1158.518921,1599.614380 1116.792480,1567.409180 
	C1077.523926,1537.100830 1032.312500,1532.726074 986.906311,1549.886353 
	C925.186523,1573.212280 891.811890,1619.897705 883.853088,1685.433960 
	C879.280273,1723.088135 890.966125,1755.046021 914.593872,1783.509766 
	C921.141052,1791.397217 928.088562,1798.952148 935.857910,1807.805542 
	C932.320435,1808.429199 929.964172,1809.197876 927.604553,1809.207886 
	C889.944763,1809.369141 852.257324,1810.340088 814.633667,1809.211304 
	C788.136841,1808.416382 767.648438,1793.507568 759.820435,1767.214233 
	C757.648926,1759.920410 756.384216,1752.270874 755.508606,1744.691528 
	C751.401550,1709.140625 744.679749,1674.203857 731.820740,1640.670410 
	C722.198364,1615.577148 709.948364,1592.132935 690.406677,1573.000244 
	C670.178101,1553.194946 646.130920,1542.477173 617.937622,1541.396973 
	C552.535645,1538.891235 503.864410,1567.748535 469.261139,1621.944092 
	C459.448914,1637.312012 453.900543,1654.486572 453.352112,1672.923584 
	C452.520874,1700.869141 465.187714,1720.881348 490.018890,1733.075195 
	C505.502716,1740.678833 522.341492,1743.361206 539.401855,1744.464111 
	C546.387817,1744.915649 548.955750,1741.543213 547.576111,1734.508545 
	C547.258362,1732.888672 546.505432,1731.359009 546.036560,1729.763062 
	C542.522522,1717.803345 545.281494,1709.289307 556.912170,1704.253174 
	C566.221741,1700.222168 576.541565,1697.580811 586.643433,1696.523438 
	C606.319580,1694.463745 625.920654,1696.402954 645.039429,1701.935181 
	C659.778137,1706.199829 672.541626,1713.813110 683.084656,1724.951172 
	C707.185181,1750.411865 700.734558,1785.999268 669.262512,1801.605103 
	C658.292786,1807.044678 646.464111,1809.703125 634.426453,1809.462769 
	C590.124634,1808.577881 545.799377,1807.771362 501.560394,1805.455444 
	C486.814789,1804.683716 472.044495,1800.333374 457.744812,1796.075928 
	C438.006073,1790.199463 424.758545,1776.865112 417.729279,1757.212891 
	C416.058350,1752.541504 412.178467,1748.660156 407.847931,1745.018555 
	C407.847931,1741.702271 407.847931,1738.386108 407.847931,1735.069824 
	C407.848511,1396.747803 407.974274,1058.425537 407.717163,720.103699 
	C407.677856,668.352539 419.641479,620.243225 447.834869,576.843445 
	C492.445282,508.171875 555.897461,468.851471 637.125305,458.508148 
	C646.673218,457.292389 656.423340,457.347137 666.079773,457.345947 
	C1087.399048,457.294373 1508.718384,457.325287 1930.037720,457.280945 
	C1994.835083,457.274109 2051.821045,478.530487 2100.146240,521.313232 
	C2156.468506,571.175720 2185.399902,634.414062 2187.847656,709.665283 
	C2188.010254,714.660706 2187.960205,719.663940 2187.960449,724.663574 
	C2187.965088,1005.654236 2187.934570,1286.644897 2188.114502,1567.635376 
	C2188.119873,1575.932007 2186.123535,1581.314697 2179.131348,1586.749512 
	C2150.876953,1608.710938 2138.224365,1637.898438 2143.206055,1673.704102 
	C2146.694824,1698.781616 2151.405762,1723.687622 2155.018799,1748.749756 
	C2156.290283,1757.570679 2157.081543,1766.762085 2156.068604,1775.551147 
	C2153.644043,1796.590820 2140.477783,1809.113403 2119.540039,1811.761108 
	C2107.482422,1813.285767 2095.475586,1812.278931 2083.885254,1808.871582 
	C2069.731934,1804.710571 2059.978027,1795.118164 2056.639648,1780.827515 
	C2054.321045,1770.901489 2053.465088,1760.375977 2053.696289,1750.157715 
	C2054.608887,1709.840698 2056.222900,1669.539551 2057.536377,1629.231201 
	C2057.709717,1623.904053 2058.012695,1618.542114 2057.614746,1613.244385 
	C2057.001221,1605.078247 2053.849121,1602.908691 2046.571533,1606.251343 
	C2032.054688,1612.919434 2017.734131,1620.028809 2003.485107,1627.256836 
	C1999.363770,1629.347534 1995.679932,1632.352661 1991.936646,1635.128784 
	C1971.187866,1650.517334 1962.671143,1671.054321 1967.510498,1696.419556 
	C1970.628906,1712.763794 1975.054443,1728.856323 1978.772827,1745.089478 
	C1980.408203,1752.229004 1982.191406,1759.379761 1983.125000,1766.626221 
	C1985.597290,1785.816650 1976.334961,1800.795410 1958.151367,1807.214600 
	C1942.089478,1812.885132 1925.480347,1813.916382 1908.836548,1810.895142 
	C1889.991455,1807.474365 1879.979614,1797.012573 1878.168701,1777.894531 
	C1877.206787,1767.737915 1877.553833,1757.154663 1879.285767,1747.104614 
	C1883.785522,1720.994019 1893.737427,1696.566895 1904.520264,1672.484619 
	C1906.073242,1669.016479 1907.026489,1665.279663 1908.933594,1659.682251 
	C1904.534302,1660.352661 1901.810425,1660.068726 1899.869995,1661.167725 
	C1868.381592,1679.002441 1838.535034,1698.833618 1816.499390,1728.488770 
	C1805.310913,1743.546021 1799.313110,1760.714233 1794.209961,1778.385620 
	C1793.102173,1782.221436 1792.127075,1786.122681 1790.655029,1789.820190 
	C1787.967896,1796.568726 1783.326904,1801.661499 1776.697754,1804.831909 
	C1765.882324,1810.004272 1731.218750,1811.874634 1718.016235,1807.724243 
	C1717.556641,1800.395142 1717.101929,1792.786377 1716.598755,1785.180664 
	C1713.490845,1738.192871 1708.116577,1691.569214 1693.965088,1646.387085 
	C1686.956909,1624.012207 1678.163696,1602.456299 1663.793213,1583.630493 
	C1650.589722,1566.333618 1634.905640,1552.062012 1613.505859,1545.832886 
	C1579.737671,1536.003540 1548.139282,1540.811768 1519.458862,1561.544678 
	C1496.287842,1578.295166 1479.214844,1600.334229 1466.242554,1625.555176 
	C1437.869507,1680.718628 1427.802979,1739.438843 1433.122192,1800.983521 
	C1435.376343,1827.065308 1441.243408,1852.322144 1451.852783,1876.331543 
	C1479.954834,1939.927490 1528.788574,1973.164307 1598.280396,1975.925293 
	C1607.473511,1976.290527 1616.680542,1976.306396 1627.247559,1976.510376 
	C1625.513672,1979.708984 1624.750732,1981.800049 1623.430908,1983.443848 
	C1612.141846,1997.504395 1597.406006,2006.086548 1579.992920,2010.191406 
	C1554.436890,2016.215942 1528.870117,2014.709839 1503.724854,2008.464844 
	C1485.979004,2004.057495 1468.701416,1997.769409 1451.200439,1992.367798 
	C1447.892578,1991.346924 1444.516602,1990.546753 1440.673706,1989.510254 
	C1440.087036,1992.413574 1439.407593,1994.010742 1439.504150,1995.559570 
	C1441.420288,2026.296021 1445.561768,2056.668945 1457.375488,2085.365479 
	C1469.452515,2114.701904 1487.367798,2139.504639 1515.382935,2155.872559 
	C1516.150391,2156.320801 1516.645874,2157.234619 1518.295776,2159.082031 
	C1514.111450,2159.308350 1510.990479,2159.622559 1507.869263,2159.624023 
	C1454.204346,2159.653076 1400.539551,2159.642822 1346.874634,2159.642822 
	C1118.882202,2159.642334 890.888611,2159.216064 662.898010,2159.853027 
	C571.656799,2160.107910 470.252441,2105.147949 426.982239,2000.253662 
	C417.647552,1977.624878 411.592346,1954.137085 409.202911,1929.745483 
	C409.021271,1927.891357 409.179047,1926.003906 409.179047,1922.409668 
	C411.396088,1924.065674 412.458923,1924.608887 413.190369,1925.442749 
	C429.776794,1944.350952 451.058624,1955.626465 474.601410,1963.171753 
	C496.640472,1970.234985 519.356140,1973.643433 542.377319,1975.094482 
	C574.400879,1977.113159 606.351624,1976.925171 637.999207,1970.702637 
	C666.255920,1965.146729 692.265137,1954.670166 714.242615,1935.479980 
	C714.971924,1934.843140 715.959412,1934.501831 717.626282,1933.580811 
	C719.806641,1935.742432 722.088257,1938.052856 724.421387,1940.310059 
	C743.689514,1958.952026 766.259827,1971.346802 793.124268,1974.004883 
	C810.318848,1975.706177 827.701721,1975.505127 846.000122,1976.155273 
M1306.065430,1995.117310 
	C1312.277466,1984.481445 1319.165771,1974.177002 1324.574463,1963.147217 
	C1340.579712,1930.507446 1346.780029,1895.707520 1346.692261,1859.478027 
	C1346.480103,1771.813599 1346.626953,1684.148438 1346.628784,1596.483521 
	C1346.629272,1573.817261 1346.603271,1551.151001 1346.658691,1528.484985 
	C1346.666260,1525.380249 1347.076660,1522.276489 1347.365234,1518.276001 
	C1351.878906,1520.250488 1354.884644,1521.625977 1357.937012,1522.888916 
	C1365.778809,1526.133423 1374.035522,1528.207886 1382.338989,1526.248169 
	C1392.668823,1523.810303 1402.807861,1520.456543 1412.846924,1516.972534 
	C1415.299805,1516.121216 1418.496704,1513.420410 1418.799194,1511.219116 
	C1419.381470,1506.979492 1415.397827,1505.270752 1411.789917,1504.080200 
	C1410.525269,1503.662964 1409.226318,1503.349976 1407.943604,1502.987183 
	C1394.651611,1499.227783 1383.485474,1492.009033 1375.589233,1480.767456 
	C1369.308105,1471.825195 1363.439453,1462.393799 1358.862427,1452.497437 
	C1350.558105,1434.541992 1346.427856,1415.260986 1343.458252,1395.746826 
	C1342.834839,1391.650269 1341.808960,1387.614746 1340.624756,1381.889648 
	C1335.824463,1384.778809 1332.326660,1386.445190 1329.331177,1388.760986 
	C1314.564209,1400.177002 1300.190063,1412.119995 1285.136353,1423.137695 
	C1277.974854,1428.379272 1275.249146,1434.069092 1275.264648,1443.078003 
	C1275.547607,1607.740845 1275.393311,1772.404419 1275.540283,1937.067505 
	C1275.567017,1966.924072 1272.312500,1996.258179 1264.578735,2025.094482 
	C1263.975342,2027.344238 1263.153198,2029.650879 1263.188599,2031.919312 
	C1263.216309,2033.690308 1263.955078,2036.197021 1265.233765,2036.981323 
	C1266.402466,2037.698120 1268.936646,2036.940674 1270.472290,2036.104614 
	C1272.164307,2035.182983 1273.526733,2033.536499 1274.821533,2032.024902 
	C1285.000122,2020.142944 1295.128052,2008.217529 1306.065430,1995.117310 
z"/>
<path fill="#960E0E" opacity="1.000000" stroke="none" 
	d="
M1644.717773,2150.814941 
	C1669.673828,2127.622314 1683.848389,2098.883789 1693.749390,2067.665771 
	C1702.336548,2040.590698 1707.907227,2012.858032 1711.532349,1984.712646 
	C1711.826904,1982.425415 1712.240723,1980.153687 1712.787598,1976.676636 
	C1717.366943,1976.513062 1721.915161,1976.518799 1726.434082,1976.158569 
	C1742.008301,1974.916992 1757.729370,1974.504761 1773.100586,1971.984131 
	C1792.436890,1968.813599 1809.875610,1960.437622 1825.178101,1947.958130 
	C1826.698730,1946.717896 1828.351440,1945.639771 1830.676270,1943.955200 
	C1854.958374,1971.347656 1886.568359,1981.704468 1921.763916,1982.167114 
	C1956.827148,1982.628174 1989.067139,1973.882202 2016.072266,1948.299316 
	C2019.258057,1950.523682 2022.460083,1952.723877 2025.625488,1954.975220 
	C2051.634277,1973.472290 2079.983887,1984.327759 2112.506348,1982.148438 
	C2134.326172,1980.686279 2154.166748,1973.751343 2172.283203,1961.635742 
	C2174.985352,1959.828857 2177.732422,1958.089478 2182.218750,1955.176025 
	C2181.049805,1960.636963 2180.438965,1964.160156 2179.536865,1967.607178 
	C2152.078369,2072.525635 2061.282227,2149.413330 1953.238647,2159.223145 
	C1949.264648,2159.584229 1945.252319,2159.635986 1941.257812,2159.636963 
	C1842.961426,2159.661133 1744.665039,2159.658936 1646.368652,2159.661377 
	C1643.442505,2159.661621 1640.516479,2159.661377 1636.703369,2159.661377 
	C1637.976440,2154.804443 1641.877197,2153.735107 1644.717773,2150.814941 
z"/>
<path fill="#971010" opacity="1.000000" stroke="none" 
	d="
M1490.748413,1729.221558 
	C1497.261719,1706.645996 1509.335571,1697.090454 1531.992065,1695.985474 
	C1559.382080,1694.649414 1583.038208,1702.811768 1602.390503,1722.874756 
	C1625.425049,1746.755371 1637.289429,1775.768677 1643.438477,1808.190552 
	C1641.757935,1808.834595 1640.608398,1809.661621 1639.461914,1809.657715 
	C1612.397705,1809.567139 1585.531006,1807.602783 1559.463501,1799.704590 
	C1543.759399,1794.946411 1528.994751,1788.088135 1515.730103,1778.255371 
	C1506.735718,1771.588257 1499.718384,1763.287109 1494.783936,1753.222412 
	C1491.186401,1745.885010 1489.177612,1738.276245 1490.748413,1729.221558 
z"/>
<path fill="#FEFBFB" opacity="1.000000" stroke="none" 
	d="
M1305.668579,1995.711426 
	C1295.128052,2008.217529 1285.000122,2020.142944 1274.821533,2032.024902 
	C1273.526733,2033.536499 1272.164307,2035.182983 1270.472290,2036.104614 
	C1268.936646,2036.940674 1266.402466,2037.698120 1265.233765,2036.981323 
	C1263.955078,2036.197021 1263.216309,2033.690308 1263.188599,2031.919312 
	C1263.153198,2029.650879 1263.975342,2027.344238 1264.578735,2025.094482 
	C1272.312500,1996.258179 1275.567017,1966.924072 1275.540283,1937.067505 
	C1275.393311,1772.404419 1275.547607,1607.740845 1275.264648,1443.078003 
	C1275.249146,1434.069092 1277.974854,1428.379272 1285.136353,1423.137695 
	C1300.190063,1412.119995 1314.564209,1400.177002 1329.331177,1388.760986 
	C1332.326660,1386.445190 1335.824463,1384.778809 1340.624756,1381.889648 
	C1341.808960,1387.614746 1342.834839,1391.650269 1343.458252,1395.746826 
	C1346.427856,1415.260986 1350.558105,1434.541992 1358.862427,1452.497437 
	C1363.439453,1462.393799 1369.308105,1471.825195 1375.589233,1480.767456 
	C1383.485474,1492.009033 1394.651611,1499.227783 1407.943604,1502.987183 
	C1409.226318,1503.349976 1410.525269,1503.662964 1411.789917,1504.080200 
	C1415.397827,1505.270752 1419.381470,1506.979492 1418.799194,1511.219116 
	C1418.496704,1513.420410 1415.299805,1516.121216 1412.846924,1516.972534 
	C1402.807861,1520.456543 1392.668823,1523.810303 1382.338989,1526.248169 
	C1374.035522,1528.207886 1365.778809,1526.133423 1357.937012,1522.888916 
	C1354.884644,1521.625977 1351.878906,1520.250488 1347.365234,1518.276001 
	C1347.076660,1522.276489 1346.666260,1525.380249 1346.658691,1528.484985 
	C1346.603271,1551.151001 1346.629272,1573.817261 1346.628784,1596.483521 
	C1346.626953,1684.148438 1346.480103,1771.813599 1346.692261,1859.478027 
	C1346.780029,1895.707520 1340.579712,1930.507446 1324.574463,1963.147217 
	C1319.165771,1974.177002 1312.277466,1984.481445 1305.668579,1995.711426 
z"/>
</svg>